<svg id="Layer_1" data-name="Layer 1" xmlns="http://www.w3.org/2000/svg" viewBox="0 0 543.59 112.73"><defs><style>.cls-1{fill:#edadb7;}.cls-2{fill:#80c1c3;}.cls-3{fill:#f5cf84;}.cls-4{fill:none;}</style></defs><title>logo_multicolor</title><path class="cls-1" d="M466.06,356.79c-.21,2.91-18.8,3.81-20.71,3.58-2.5-.29-5-.55-7.52-.81a9.79,9.79,0,0,0-2.47.14c-7.82,1.55-15.69.19-23.53.68-4,.24-8,.74-12.07.86-3.76.12-6.55-3.93-6.41-9.72.22-10.35.73-20.68,1.11-31,0-.95,0-1.91,0-2.86,0-13.74-.11-27.47,0-41.2,0-5.37.76-10.85,3.93-14.12a15.6,15.6,0,0,1,6.6-4.16,30.69,30.69,0,0,1,9.61-1.06c2.77.1,5.55,5.38,5.21,9-.21,2.3-.38,4.63-.49,7-.25,4.79-.53,9.57-.66,14.37-.06,2.19.28,4.4.35,6.61.13,3.44,1.05,31.66,2.21,34.11,2,4.25,8.79,5.48,9.26,5.79,1.32.9,19.47,1.48,22.6,1.17,2.35-.23,11.9,6.32,12.76,12.56A44.71,44.71,0,0,1,466.06,356.79Z" transform="translate(-124.24 -250.53)"/><path class="cls-2" d="M341.27,258.55l-.36,0a28.25,28.25,0,0,1,10.19,6.37C348.58,261.63,345.87,258.66,341.27,258.55Zm-33.54,11a21.21,21.21,0,0,0-3.24,2.57,2.88,2.88,0,0,0-.8,1.79c0,.84,0,2.78-.07,5.45A28,28,0,0,1,307.73,269.51Z" transform="translate(-124.24 -250.53)"/><path class="cls-3" d="M181.51,282a3.6,3.6,0,0,0-.4,1.56,34,34,0,0,1-3.5,13.49,21.31,21.31,0,0,1-9.5,10.38,25.52,25.52,0,0,1-15.35,2.91,44,44,0,0,1-7.66-1.85c0,.59,0,1.17,0,1.77.09,3-.07,6.14-.05,9.21a26.13,26.13,0,0,0,.26,3.7,28.23,28.23,0,0,1,.35,5.09c0,3.82,0,7.67,0,11.47A95.51,95.51,0,0,1,145,352c-.09.59-.15,1.3-.18,2a9.56,9.56,0,0,1-.73,3.58c-.48,1.12-.93,2.48-1.42,3.55-.88,2-1.81,2.32-2.78,2a7.87,7.87,0,0,0-2.76-.1c-.13,0-.26.22-.38.2a39.79,39.79,0,0,0-4.63-.64c-2.06,0-4.08-1.35-6.08-4a1.47,1.47,0,0,0-.45-.42c-1-.56-1.4-3.36-1.21-8.08a74.25,74.25,0,0,0,.07-7.64c-.1-1.48,0-3.19,0-4.79,0-3.31-.11-6.63-.13-9.94,0-2.69,0-5.4.07-8.1,0-1,.07-1.94.07-2.92q.08-22.94.16-45.86c0-3.43.05-6.91.17-10.29a11.63,11.63,0,0,1,1.37-5.87,2.72,2.72,0,0,1,1.42-1.39c1.38-.59,2.74-2.43,4.14-1.87,2.5,1,5,1.21,7.48,4,.92,1,1.85,2.12,2.78,3.05.21.22.48.28.66-.17.37-1,.67-.52,1,.25a6.28,6.28,0,0,0,.42.81l1.14-.29a2,2,0,0,0,.46-.11c4.62-2.24,9.46-1.11,14.23-.92a4.11,4.11,0,0,0,.7.1c2.84-.41,4.84,1.35,7,2.67a59.08,59.08,0,0,1,5.26,3.27,26.51,26.51,0,0,1,4.33,4.21,18.21,18.21,0,0,1,2.24,4.06c.81,1.76,1.52,3.58,2.22,5.4A5,5,0,0,1,181.51,282Z" transform="translate(-124.24 -250.53)"/><path class="cls-3" d="M569.21,308.07c-.33-2.11-.79-4.19-1-6.31-.72-6.19-1.92-12.25-5.25-17.3-4.25-6.43-8.74-12.64-13.24-18.84a4.53,4.53,0,0,0-3-2c-5.76,0-11.62-1.2-17.19,1.67a5.44,5.44,0,0,1-3.33.3c-4.33-1.12-8.12,1.1-11.8,2.9-4.18,2-8,5-12,7.64-12.25,8.08-19,19.9-18.66,36.61A41.32,41.32,0,0,0,490.21,334a120,120,0,0,0,8.18,11.81c4.47,5.42,9.4,10.45,16,12.24,3.24.89,6.65.92,9.35,1.26,3.63-.31,6.63-.28,9.53-.88,7-1.43,13.13-5.44,19.38-9.08a23.88,23.88,0,0,0,8.25-8.11c2.65-4.26,4.94-8.83,7.33-13.29a6,6,0,0,0,.67-2.29c.34-4.49.69-9,.89-13.48A21.63,21.63,0,0,0,569.21,308.07ZM543,311c-.41,1.68-.53,3.36-.77,5a12,12,0,0,0,0,2.4c.14,2.3-1.18,3.94-3,5.11a32.19,32.19,0,0,1-5.79,2.79,22.6,22.6,0,0,1-4.17.76c-4.17-.06-7.56-1.75-10.74-4a21.36,21.36,0,0,1-5.34-5.39,17.05,17.05,0,0,1-2-4.77,19.3,19.3,0,0,1-.41-3.33c-.37-2.81,1-5.35,1.46-8a1.65,1.65,0,0,1,.69-.89,32.31,32.31,0,0,1,7.19-3.68,13.56,13.56,0,0,1,5.18-.89c1,.05,2-.3,3.06-.27a22.94,22.94,0,0,1,7.47,1.64,2.74,2.74,0,0,0,.31.14c2.76.62,4,2.66,5.06,4.8a15.24,15.24,0,0,1,1.73,3.63A11.74,11.74,0,0,1,543,311Z" transform="translate(-124.24 -250.53)"/><path class="cls-3" d="M667.67,356a29.32,29.32,0,0,1-9.19,1.82c-.73-1.2-35.17-36.87-37.34-37.82-.81-.35-5.07-1.44-5.74.36-.36.95,0,32.29.62,36.9a3,3,0,0,1-.52,2.56,3.31,3.31,0,0,0-.87,1.8l-1.52-.17c-4.49-.51-9-.93-13.45-1.58a68.59,68.59,0,0,1-7.63-1.63,2.11,2.11,0,0,1-1.35-1.32c-.5-2.86,1.48-15.73,2.6-19.24,2.18-6.84,4.66-47.17,4.38-53.44a60.24,60.24,0,0,1,.77-11.43,13.68,13.68,0,0,1,1.68-4.26,27.24,27.24,0,0,1,6.05-8.35c1.68-1.48,3.11-3.25,4.78-4.74,3.13-2.75,6.77-4.3,9.43-4.46,10.14-1.9,17.16,2,23.62,7.89a21.66,21.66,0,0,1,5,7.79,2.88,2.88,0,0,0,.19.47c3.2,4.73,3.27,22,2.32,24.65a67.82,67.82,0,0,1-2.34,6.41,28.29,28.29,0,0,1-3.5,5.55,15.15,15.15,0,0,1-2.82,2.54c1.47,2,3,3.91,4.3,6,4,6.17,7.86,12.48,11.81,18.71,1.6,2.55,3.34,5,4.9,7.59A27.42,27.42,0,0,1,667.67,356Z" transform="translate(-124.24 -250.53)"/><path class="cls-2" d="M365.72,344.05a3.77,3.77,0,0,0-2.19-1.15,3,3,0,0,1-2.75-1.47c-1-1.48-2.17-2.9-3.26-4.34-1.66-2.19-12-17.67-13-19.06-1.39-1.87-3.1-3.49-4.58-5.29.36-.05.73-.12,1.1-.19,2.19-.91,4.6-1.49,6.53-2.79a50.92,50.92,0,0,0,8.41-6.93c2.56-2.69,4.08-6,3-10l-.18-.72a28.33,28.33,0,0,0-51.07-22.6,28,28,0,0,0-4.11,9.81c-.07,2.62-.19,6-.35,9.63-.61,14-1.77,33.12-3,37.2-1.07,3.46,1.1,21.51-.4,26.44a6.06,6.06,0,0,0,1.33,6,12.57,12.57,0,0,0,7,3.74,35.32,35.32,0,0,0,10.21.21q1.2-.18,2.4-.39-.07-.66-.18-1.32c-.66-4.47-1.46-19.47-1.77-22.46,0-.42,2.52-10.54,2.41-12.3,0-.27.69-.8,1.11-.85,1.31-.16,2.58-.38,3.62,1,2.09,2.81,22.56,26.22,25.3,28.85,1.8-.73,3.56-1.58,5.32-2.4,1.58-.74,3-1.84,4.6-2.52,1.93-.82,3.17-2.34,4.53-3.77A1.52,1.52,0,0,0,365.72,344.05Zm-32.64-47.28c-.79.14-1.61.14-2.61.21a19.67,19.67,0,0,1-2.55-.3,9.06,9.06,0,0,1-4.37-2.9,27.66,27.66,0,0,1-2.23-2.8,8.88,8.88,0,0,1-1.79-5c-.1-4,1.75-6.76,5.11-8.67a29.94,29.94,0,0,1,3.28-1.81,5.21,5.21,0,0,1,3.22-.69,1.7,1.7,0,0,0,.92-.07c1.52-.68,3.12-.39,4.7-.4a1.26,1.26,0,0,1,.82.47c1.24,1.46,2.46,2.94,3.63,4.46a8.38,8.38,0,0,1,1.43,4.1c.07.5.19,1,.29,1.49a4.63,4.63,0,0,1,.14,1c0,1.06-.15,2.13-.24,3.19a1.28,1.28,0,0,1-.18.54c-.66,1.06-1.29,2.14-2,3.15a6.19,6.19,0,0,1-2.26,1.92A19.68,19.68,0,0,1,333.08,296.77Z" transform="translate(-124.24 -250.53)"/><path class="cls-4" d="M303.62,279.32c-.07,2.62-.19,6-.35,9.63a26.28,26.28,0,0,1-.26-3.78A28.25,28.25,0,0,1,303.62,279.32Z" transform="translate(-124.24 -250.53)"/><path class="cls-4" d="M343.07,285.82c0,1.06-.15,2.13-.24,3.19a1.28,1.28,0,0,1-.18.54c-.66,1.06-1.29,2.14-2,3.15a6.19,6.19,0,0,1-2.26,1.92,19.68,19.68,0,0,1-5.3,2.15c-.79.14-1.61.14-2.61.21a19.67,19.67,0,0,1-2.55-.3,9.06,9.06,0,0,1-4.37-2.9,27.66,27.66,0,0,1-2.23-2.8,8.88,8.88,0,0,1-1.79-5c-.1-4,1.75-6.76,5.11-8.67a29.94,29.94,0,0,1,3.28-1.81,5.21,5.21,0,0,1,3.22-.69,1.7,1.7,0,0,0,.92-.07c1.52-.68,3.12-.39,4.7-.4a1.26,1.26,0,0,1,.82.47c1.24,1.46,2.46,2.94,3.63,4.46a8.38,8.38,0,0,1,1.43,4.1c.07.5.19,1,.29,1.49A4.63,4.63,0,0,1,343.07,285.82Z" transform="translate(-124.24 -250.53)"/><path class="cls-3" d="M226.38,363.08c-3.83-.48-7.59-.72-11.41-1.44-4.09-.78-8.05-2.26-12.15-2.87a16.5,16.5,0,0,1-2.37-.87c-1.59-.51-3.2-1-4.79-1.44a17.79,17.79,0,0,1-2.7-.82c-3.31-1.59-4.51-3.77-3.9-8.18a71.12,71.12,0,0,1,2.41-11.3c2.48-8,5-16,8-23.79,3.32-8.71,7-17.22,10.76-25.62a160.89,160.89,0,0,1,7.72-14.67,36,36,0,0,1,9.26-10.36c2.35-1.82,6.11-.94,8.67,1.86,2.27,2.48,4.45,5.09,6.65,7.67a5.85,5.85,0,0,1,.74,1.26c3.41,7.12,7.6,13.64,9.93,21.61,1.2,4.1,3,8,4.54,11.87s3.33,7.53,4.7,11.45a134.51,134.51,0,0,0,6.06,14.07c2.25,4.68,2.57,10.15,1.88,15.58a47.76,47.76,0,0,1-1.51,7.93c-.73,2.39-2.17,3.74-4.53,3.93-3.9.32-7.76,1.35-11.64,2.06a12.54,12.54,0,0,1-1.55.17c-4.64.27-9.29.48-13.93.82C233.58,362.27,230,362.71,226.38,363.08Z" transform="translate(-124.24 -250.53)"/></svg>